<svg height="480pt" viewBox="0 0 480 480" width="480pt" xmlns="http://www.w3.org/2000/svg" xmlns:xlink="http://www.w3.org/1999/xlink"><linearGradient id="linear0" gradientUnits="userSpaceOnUse" x1="240" x2="240" y1="480" y2="0"><stop offset="0" stop-color="#12c2e9"/><stop offset=".056" stop-color="#19bfe9"/><stop offset=".137" stop-color="#2db6ea"/><stop offset=".235" stop-color="#4da7ea"/><stop offset=".344" stop-color="#7993eb"/><stop offset=".462" stop-color="#b279ed"/><stop offset=".497" stop-color="#c471ed"/><stop offset="1" stop-color="#f64f59"/></linearGradient><path d="m240 0c-132.546875 0-240 107.453125-240 240s107.453125 240 240 240 240-107.453125 240-240c-.148438-132.484375-107.515625-239.851562-240-240zm0 464c-123.710938 0-224-100.289062-224-224s100.289062-224 224-224 224 100.289062 224 224c-.140625 123.652344-100.347656 223.859375-224 224zm102.152344-197.121094c2.824218 3.394532 2.367187 8.4375-1.023438 11.265625l-96 80c-.390625.269531-.808594.507813-1.242187.703125-.210938.164063-.433594.3125-.664063.449219-.101562.046875-.214844.070313-.328125.117187-.917969.378907-1.902343.574219-2.894531.585938-.992188-.011719-1.96875-.210938-2.886719-.585938-.113281-.039062-.226562-.070312-.328125-.117187-.230468-.136719-.453125-.285156-.664062-.449219-.433594-.195312-.851563-.433594-1.242188-.703125l-96-80c-3.390625-2.832031-3.847656-7.878906-1.015625-11.273437 2.832031-3.390625 7.878907-3.847656 11.273438-1.015625l82.863281 69.066406v-206.921875c0-4.417969 3.582031-8 8-8s8 3.582031 8 8v206.921875l82.871094-69.066406c1.632812-1.363281 3.738281-2.019531 5.851562-1.828125 2.117188.191406 4.070313 1.21875 5.429688 2.851562zm0 0" fill="url(#linear0)"/></svg>